<?xml version="1.0" encoding="UTF-8" standalone="no"?>
<svg xmlns="http://www.w3.org/2000/svg" width="512" height="512" viewBox="0 0 512 512">
  <rect width="512" height="512" fill="#FFE11D" rx="100" ry="100"/>
  
  <!-- Camera/Scanner symbol -->
  <g transform="translate(100, 100) scale(0.6)">
    <path d="M256 128c-70.7 0-128 57.3-128 128s57.3 128 128 128s128-57.3 128-128s-57.3-128-128-128zm0 192c-35.3 0-64-28.7-64-64s28.7-64 64-64s64 28.7 64 64s-28.7 64-64 64z" fill="#111827"/>
    <rect x="128" y="64" width="256" height="32" rx="16" ry="16" fill="#111827"/>
    <rect x="128" y="416" width="256" height="32" rx="16" ry="16" fill="#111827"/>
    <rect x="64" y="128" width="32" height="256" rx="16" ry="16" fill="#111827"/>
    <rect x="416" y="128" width="32" height="256" rx="16" ry="16" fill="#111827"/>
  </g>
  
  <!-- Text under the scanner -->
  <text x="50%" y="420" fill="#111827" font-family="Arial, sans-serif" font-weight="bold" font-size="40" text-anchor="middle">SCAN TICKET</text>
</svg>