<?xml version="1.0" encoding="UTF-8"?>
<svg width="192px" height="192px" viewBox="0 0 192 192" version="1.1" xmlns="http://www.w3.org/2000/svg">
  <!-- Scanner Icon -->
  <circle cx="96" cy="96" r="96" fill="#ffe11d"/>
  
  <!-- Camera Body -->
  <rect x="40" y="60" width="112" height="72" rx="8" ry="8" fill="#333333"/>
  
  <!-- Camera Lens -->
  <circle cx="96" cy="96" r="30" fill="#1c1c1c" stroke="#555555" stroke-width="3"/>
  <circle cx="96" cy="96" r="24" fill="#2c2c2c" stroke="#555555" stroke-width="1"/>
  <circle cx="96" cy="96" r="18" fill="#3c3c3c" stroke="#555555" stroke-width="1"/>
  
  <!-- Camera Flash -->
  <rect x="135" y="68" width="10" height="10" rx="2" ry="2" fill="#ffffff"/>
  
  <!-- Viewfinder -->
  <line x1="76" y1="86" x2="76" y2="76" stroke="#ffffff" stroke-width="2"/>
  <line x1="76" y1="76" x2="86" y2="76" stroke="#ffffff" stroke-width="2"/>
  
  <line x1="116" y1="86" x2="116" y2="76" stroke="#ffffff" stroke-width="2"/>
  <line x1="116" y1="76" x2="106" y2="76" stroke="#ffffff" stroke-width="2"/>
  
  <line x1="76" y1="106" x2="76" y2="116" stroke="#ffffff" stroke-width="2"/>
  <line x1="76" y1="116" x2="86" y2="116" stroke="#ffffff" stroke-width="2"/>
  
  <line x1="116" y1="106" x2="116" y2="116" stroke="#ffffff" stroke-width="2"/>
  <line x1="116" y1="116" x2="106" y2="116" stroke="#ffffff" stroke-width="2"/>
  
  <!-- Ticket Outline -->
  <rect x="65" y="90" width="62" height="12" rx="2" ry="2" fill="none" stroke="#ffffff" stroke-width="2" stroke-dasharray="4,2"/>
</svg>