<?xml version="1.0" encoding="UTF-8"?>
<svg width="400px" height="180px" viewBox="0 0 400 180" version="1.1" xmlns="http://www.w3.org/2000/svg">
  <!-- iOS Install Guide -->
  <rect x="0" y="0" width="400" height="180" fill="#f8f9fa" rx="8" ry="8"/>
  
  <!-- iPhone Device Mockup -->
  <rect x="20" y="15" width="80" height="150" rx="15" ry="15" fill="#333333"/>
  <rect x="25" y="25" width="70" height="120" fill="#ffffff"/>
  <circle cx="60" cy="155" r="8" fill="#f1f1f1"/>
  
  <!-- Browser UI -->
  <rect x="25" y="25" width="70" height="20" fill="#f1f1f1"/>
  <rect x="30" y="32" width="40" height="6" rx="3" ry="3" fill="#333333"/>
  <circle cx="85" cy="35" r="3" fill="#333333"/>
  
  <!-- Website Content -->
  <rect x="30" y="50" width="60" height="10" rx="2" ry="2" fill="#ffe11d"/>
  <rect x="30" y="65" width="40" height="5" rx="2" ry="2" fill="#333333"/>
  <rect x="30" y="75" width="55" height="5" rx="2" ry="2" fill="#666666"/>
  <rect x="30" y="85" width="50" height="5" rx="2" ry="2" fill="#666666"/>
  <rect x="30" y="100" width="20" height="20" rx="10" ry="10" fill="#ffe11d"/>
  <rect x="55" y="100" width="20" height="20" rx="10" ry="10" fill="#ffe11d"/>
  
  <!-- Share Button -->
  <rect x="120" y="50" width="80" height="80" rx="8" ry="8" fill="#f1f1f1"/>
  <rect x="140" y="60" width="40" height="8" rx="4" ry="4" fill="#333333"/>
  <rect x="130" y="75" width="60" height="5" rx="2" ry="2" fill="#333333"/>
  <rect x="135" y="85" width="50" height="5" rx="2" ry="2" fill="#666666"/>
  <circle cx="160" cy="105" r="12" fill="#007aff"/>
  <path d="M160,100 L155,105 L160,110 L165,105 Z" fill="#ffffff"/>
  
  <!-- Add to Home Screen -->
  <rect x="220" y="50" width="80" height="80" rx="8" ry="8" fill="#f1f1f1"/>
  <rect x="230" y="60" width="60" height="8" rx="4" ry="4" fill="#333333"/>
  <rect x="235" y="75" width="50" height="5" rx="2" ry="2" fill="#333333"/>
  <rect x="240" y="85" width="40" height="5" rx="2" ry="2" fill="#666666"/>
  <rect x="230" y="100" width="60" height="20" rx="10" ry="10" fill="#007aff"/>
  <rect x="250" y="107" width="20" height="6" rx="3" ry="3" fill="#ffffff"/>
  <rect x="257" y="100" width="6" height="20" rx="3" ry="3" fill="#ffffff"/>
  
  <!-- Home Screen Result -->
  <rect x="320" y="15" width="80" height="150" rx="15" ry="15" fill="#333333"/>
  <rect x="325" y="25" width="70" height="120" fill="#f1f1f1"/>
  <circle cx="360" cy="155" r="8" fill="#f1f1f1"/>
  
  <!-- App Icon on Home Screen -->
  <rect x="335" y="50" width="20" height="20" rx="5" ry="5" fill="#ffe11d"/>
  <rect x="365" y="50" width="20" height="20" rx="5" ry="5" fill="#444444"/>
  <rect x="335" y="80" width="20" height="20" rx="5" ry="5" fill="#444444"/>
  <rect x="365" y="80" width="20" height="20" rx="5" ry="5" fill="#444444"/>
  
  <!-- App Name -->
  <rect x="335" y="105" width="50" height="5" rx="2" ry="2" fill="#333333"/>
  
  <!-- Arrows -->
  <path d="M105,70 L115,70 L120,70" stroke="#333333" stroke-width="2" fill="none" stroke-dasharray="2,2"/>
  <polygon points="117,66 125,70 117,74" fill="#333333"/>
  
  <path d="M205,70 L215,70 L220,70" stroke="#333333" stroke-width="2" fill="none" stroke-dasharray="2,2"/>
  <polygon points="217,66 225,70 217,74" fill="#333333"/>
  
  <path d="M305,70 L315,70 L320,70" stroke="#333333" stroke-width="2" fill="none" stroke-dasharray="2,2"/>
  <polygon points="317,66 325,70 317,74" fill="#333333"/>
</svg>