<?xml version="1.0" encoding="UTF-8" standalone="no"?>
<svg xmlns="http://www.w3.org/2000/svg" width="400" height="300" viewBox="0 0 400 300">
  <!-- Background -->
  <rect width="400" height="300" fill="#f8f9fa" />
  
  <!-- Header -->
  <rect x="10" y="10" width="380" height="50" rx="5" fill="#d32f2f" />
  <text x="200" y="43" font-family="Arial, sans-serif" font-size="20" font-weight="bold" fill="white" text-anchor="middle">MISSING CHILDREN ALERT</text>
  
  <!-- Photo Placeholders -->
  <rect x="30" y="80" width="100" height="120" rx="5" fill="#e0e0e0" />
  <circle cx="80" cy="120" r="30" fill="#bdbdbd" />
  <rect x="65" y="160" width="30" height="10" rx="2" fill="#bdbdbd" />
  <text x="80" y="210" font-family="Arial, sans-serif" font-size="12" text-anchor="middle" fill="#616161">Sipho, 7</text>
  <text x="80" y="225" font-family="Arial, sans-serif" font-size="10" text-anchor="middle" fill="#616161">Missing since 12/03</text>
  
  <rect x="150" y="80" width="100" height="120" rx="5" fill="#e0e0e0" />
  <circle cx="200" cy="120" r="30" fill="#bdbdbd" />
  <rect x="185" y="160" width="30" height="10" rx="2" fill="#bdbdbd" />
  <text x="200" y="210" font-family="Arial, sans-serif" font-size="12" text-anchor="middle" fill="#616161">Thandi, 9</text>
  <text x="200" y="225" font-family="Arial, sans-serif" font-size="10" text-anchor="middle" fill="#616161">Missing since 15/04</text>
  
  <rect x="270" y="80" width="100" height="120" rx="5" fill="#e0e0e0" />
  <circle cx="320" cy="120" r="30" fill="#bdbdbd" />
  <rect x="305" y="160" width="30" height="10" rx="2" fill="#bdbdbd" />
  <text x="320" y="210" font-family="Arial, sans-serif" font-size="12" text-anchor="middle" fill="#616161">Mandla, 6</text>
  <text x="320" y="225" font-family="Arial, sans-serif" font-size="10" text-anchor="middle" fill="#616161">Missing since 02/04</text>
  
  <!-- Footer -->
  <rect x="10" y="240" width="380" height="50" rx="5" fill="#eeeeee" />
  <text x="200" y="265" font-family="Arial, sans-serif" font-size="14" font-weight="bold" fill="#d32f2f" text-anchor="middle">CALL: 0860 555 999</text>
  <text x="200" y="280" font-family="Arial, sans-serif" font-size="10" fill="#616161" text-anchor="middle">If you have seen these children or have any information</text>
</svg>